<svg xmlns="http://www.w3.org/2000/svg" viewBox="0 0 960 420" role="img" aria-labelledby="title desc">
  <title id="title">Meet Sutariya — Backend Engineering, Data Systems, and Applied AI</title>
  <desc id="desc">Editorial portfolio banner showing a measured engineering pipeline from ingest to retrieve, serve, and evaluate.</desc>

  <rect width="960" height="420" rx="18" fill="#0b1016"/>
  <path d="M0 76H960M0 336H960M528 76V336" stroke="#22303d" stroke-width="1"/>
  <path d="M24 24H94M24 24V58M936 24H866M936 24V58M24 396H94M24 396V362M936 396H866M936 396V362" fill="none" stroke="#75e6c5" stroke-width="2"/>

  <text x="52" y="48" fill="#8293a4" font-family="ui-monospace, SFMono-Regular, Menlo, Consolas, monospace" font-size="14" letter-spacing="3">ENGINEERING PORTFOLIO / 2026</text>
  <circle cx="906" cy="42" r="5" fill="#75e6c5"/>

  <text x="52" y="156" fill="#f5f7fa" font-family="Inter, ui-sans-serif, system-ui, -apple-system, BlinkMacSystemFont, Segoe UI, sans-serif" font-size="76" font-weight="750" letter-spacing="-3">MEET</text>
  <text x="52" y="236" fill="#f5f7fa" font-family="Inter, ui-sans-serif, system-ui, -apple-system, BlinkMacSystemFont, Segoe UI, sans-serif" font-size="76" font-weight="750" letter-spacing="-3">SUTARIYA</text>
  <text x="55" y="286" fill="#75e6c5" font-family="ui-monospace, SFMono-Regular, Menlo, Consolas, monospace" font-size="17" letter-spacing="1.6">BACKEND ENGINEERING · DATA SYSTEMS · APPLIED AI</text>

  <text x="566" y="116" fill="#8293a4" font-family="ui-monospace, SFMono-Regular, Menlo, Consolas, monospace" font-size="13" letter-spacing="2.5">SYSTEM PATH / 04 STAGES</text>

  <g font-family="ui-monospace, SFMono-Regular, Menlo, Consolas, monospace" font-size="15">
    <rect x="566" y="148" width="142" height="42" rx="6" fill="#111a23" stroke="#314252"/>
    <text x="583" y="174" fill="#dce5ec">01  INGEST</text>
    <path d="M708 169H754" stroke="#75e6c5" stroke-width="2"/>
    <path d="m746 162 8 7-8 7" fill="none" stroke="#75e6c5" stroke-width="2"/>

    <rect x="754" y="148" width="154" height="42" rx="6" fill="#111a23" stroke="#314252"/>
    <text x="771" y="174" fill="#dce5ec">02  RETRIEVE</text>
    <path d="M831 190V224" stroke="#75e6c5" stroke-width="2"/>
    <path d="m824 216 7 8 7-8" fill="none" stroke="#75e6c5" stroke-width="2"/>

    <rect x="754" y="224" width="154" height="42" rx="6" fill="#111a23" stroke="#314252"/>
    <text x="771" y="250" fill="#dce5ec">03  SERVE</text>
    <path d="M754 245H708" stroke="#75e6c5" stroke-width="2"/>
    <path d="m716 238-8 7 8 7" fill="none" stroke="#75e6c5" stroke-width="2"/>

    <rect x="566" y="224" width="142" height="42" rx="6" fill="#75e6c5"/>
    <text x="583" y="250" fill="#07100d">04  EVALUATE</text>
  </g>

  <text x="52" y="376" fill="#f5f7fa" font-family="Inter, ui-sans-serif, system-ui, -apple-system, BlinkMacSystemFont, Segoe UI, sans-serif" font-size="27" font-weight="650" letter-spacing="0.2">BUILD THE PIPELINE.</text>
  <text x="360" y="376" fill="#f5f7fa" font-family="Inter, ui-sans-serif, system-ui, -apple-system, BlinkMacSystemFont, Segoe UI, sans-serif" font-size="27" font-weight="650" letter-spacing="0.2">MEASURE THE SYSTEM.</text>
  <text x="906" y="375" text-anchor="end" fill="#8293a4" font-family="ui-monospace, SFMono-Regular, Menlo, Consolas, monospace" font-size="13">AZ / US</text>
</svg>
