<svg xmlns="http://www.w3.org/2000/svg" viewBox="0 0 960 420" role="img" aria-labelledby="title desc">
  <title id="title">Meet Sutariya — AI/ML, platform and cloud, and general software engineering</title>
  <desc id="desc">Editorial portfolio banner positioning Meet across AI and ML software engineering, platform and cloud engineering, and general software engineering.</desc>

  <rect width="960" height="420" rx="18" fill="#0b1016"/>
  <path d="M0 76H960M0 336H960M528 76V336" stroke="#22303d" stroke-width="1"/>
  <path d="M24 24H94M24 24V58M936 24H866M936 24V58M24 396H94M24 396V362M936 396H866M936 396V362" fill="none" stroke="#75e6c5" stroke-width="2"/>

  <text x="52" y="48" fill="#8293a4" font-family="ui-monospace, SFMono-Regular, Menlo, Consolas, monospace" font-size="14" letter-spacing="3">ENGINEERING PORTFOLIO / 2026</text>
  <circle cx="906" cy="42" r="5" fill="#75e6c5"/>

  <text x="52" y="156" fill="#f5f7fa" font-family="Inter, ui-sans-serif, system-ui, -apple-system, BlinkMacSystemFont, Segoe UI, sans-serif" font-size="76" font-weight="750" letter-spacing="-3">MEET</text>
  <text x="52" y="236" fill="#f5f7fa" font-family="Inter, ui-sans-serif, system-ui, -apple-system, BlinkMacSystemFont, Segoe UI, sans-serif" font-size="76" font-weight="750" letter-spacing="-3">SUTARIYA</text>
  <text x="55" y="286" fill="#75e6c5" font-family="ui-monospace, SFMono-Regular, Menlo, Consolas, monospace" font-size="13" letter-spacing="1.25">SOFTWARE ENGINEER · SYSTEMS / MODELS / PRODUCTS</text>

  <text x="566" y="111" fill="#8293a4" font-family="ui-monospace, SFMono-Regular, Menlo, Consolas, monospace" font-size="13" letter-spacing="2.5">ENGINEERING RANGE / 03 TRACKS</text>

  <g font-family="ui-monospace, SFMono-Regular, Menlo, Consolas, monospace">
    <rect x="566" y="132" width="342" height="52" rx="7" fill="#111a23" stroke="#314252"/>
    <rect x="566" y="132" width="5" height="52" rx="2.5" fill="#75e6c5"/>
    <text x="588" y="154" fill="#f5f7fa" font-size="15" font-weight="700">01  AI / ML SWE</text>
    <text x="588" y="174" fill="#8293a4" font-size="11.5">retrieval · evaluation · embeddings</text>

    <rect x="566" y="195" width="342" height="52" rx="7" fill="#111a23" stroke="#314252"/>
    <rect x="566" y="195" width="5" height="52" rx="2.5" fill="#75e6c5"/>
    <text x="588" y="217" fill="#f5f7fa" font-size="15" font-weight="700">02  PLATFORM / CLOUD SWE</text>
    <text x="588" y="237" fill="#8293a4" font-size="11.5">gateways · workers · containers</text>

    <rect x="566" y="258" width="342" height="52" rx="7" fill="#75e6c5"/>
    <rect x="566" y="258" width="5" height="52" rx="2.5" fill="#f5f7fa"/>
    <text x="588" y="280" fill="#07100d" font-size="15" font-weight="700">03  GENERAL SWE</text>
    <text x="588" y="300" fill="#18342c" font-size="11.5">APIs · data · product interfaces</text>
  </g>

  <text x="52" y="376" fill="#f5f7fa" font-family="Inter, ui-sans-serif, system-ui, -apple-system, BlinkMacSystemFont, Segoe UI, sans-serif" font-size="27" font-weight="650" letter-spacing="0.2">BUILD THE PIPELINE.</text>
  <text x="360" y="376" fill="#f5f7fa" font-family="Inter, ui-sans-serif, system-ui, -apple-system, BlinkMacSystemFont, Segoe UI, sans-serif" font-size="27" font-weight="650" letter-spacing="0.2">MEASURE THE SYSTEM.</text>
  <text x="906" y="375" text-anchor="end" fill="#8293a4" font-family="ui-monospace, SFMono-Regular, Menlo, Consolas, monospace" font-size="13">AZ / US</text>
</svg>
